<svg version="1.1" id="Layer_1" xmlns="http://www.w3.org/2000/svg" xmlns:xlink="http://www.w3.org/1999/xlink" x="0px" y="0px"
	 width="100%" viewBox="0 0 1024 1024" enable-background="new 0 0 1024 1024" xml:space="preserve">
<path fill="#FFFFFF" opacity="1.000000" stroke="none" 
	d="
M647.000000,1025.000000 
	C431.333344,1025.000000 216.166672,1025.000000 1.000000,1025.000000 
	C1.000000,683.666687 1.000000,342.333344 1.000000,1.000000 
	C342.333344,1.000000 683.666687,1.000000 1025.000000,1.000000 
	C1025.000000,342.333344 1025.000000,683.666687 1025.000000,1025.000000 
	C899.166687,1025.000000 773.333313,1025.000000 647.000000,1025.000000 
M621.500366,506.001984 
	C610.330383,495.834717 599.161316,485.666321 587.989990,475.500549 
	C580.501343,468.685944 572.951233,461.937622 565.530029,455.050415 
	C546.172302,437.085693 526.737305,419.199493 507.689240,400.911133 
	C504.818542,398.154938 502.889893,393.569092 502.228851,389.549469 
	C501.106171,382.722656 501.124756,375.675323 501.047791,368.716400 
	C500.902710,355.593567 498.012421,343.776520 486.873199,335.336212 
	C484.104980,333.238678 481.561401,330.832703 479.001587,328.474060 
	C461.538666,312.383636 444.163696,296.197052 426.619415,280.195984 
	C419.764130,273.943726 412.670319,267.930939 405.377197,262.201080 
	C404.059326,261.165710 401.243042,262.037537 399.118530,262.028839 
	C399.447601,263.886749 399.279999,266.059601 400.214691,267.533447 
	C401.883453,270.164856 404.100311,272.488342 406.292389,274.741760 
	C420.798157,289.653564 435.351074,304.519562 449.906036,319.383453 
	C453.402985,322.954651 457.248657,326.230438 460.394531,330.082611 
	C462.365967,332.496674 463.759827,335.626709 464.510742,338.658905 
	C464.769073,339.702118 462.338104,342.530792 461.059509,342.580322 
	C458.991241,342.660522 456.453888,341.585419 454.828857,340.175140 
	C449.186401,335.278442 443.804749,330.076050 438.409515,324.900665 
	C428.446045,315.343170 418.620789,305.640442 408.588593,296.156219 
	C401.595428,289.545013 394.393158,283.151978 387.174164,276.786407 
	C386.218567,275.943817 384.331268,275.163605 383.373322,275.559418 
	C382.057739,276.103058 380.354279,277.822662 380.388947,278.991760 
	C380.433685,280.501160 381.791840,282.202484 382.995453,283.412231 
	C402.502380,303.019745 422.074646,322.562195 441.631653,342.119873 
	C443.870087,344.358398 446.608643,346.297668 448.190643,348.931152 
	C449.572510,351.231537 450.745300,354.734009 449.915009,356.903381 
	C449.373230,358.318756 445.103912,358.630890 442.468750,358.771759 
	C441.318756,358.833252 439.951935,357.362518 438.899780,356.360596 
	C416.866730,335.379761 394.843781,314.388184 372.890381,293.324158 
	C370.797638,291.316223 368.888092,290.164337 366.536255,292.500031 
	C364.200165,294.820099 365.204346,296.783112 367.297974,298.848053 
	C377.108246,308.523926 386.810699,318.309113 396.553284,328.053619 
	C408.215881,339.718445 419.894592,351.367218 431.533722,363.055420 
	C434.540405,366.074738 435.175140,370.841034 432.583557,372.733154 
	C429.382507,375.070221 426.203217,374.606873 423.204742,371.759644 
	C412.723572,361.807281 402.178772,351.920837 391.577148,342.096710 
	C379.277588,330.699127 366.844543,319.445251 354.580933,308.009430 
	C351.762665,305.381378 349.528320,305.516632 346.732788,308.457092 
	C347.739899,310.412964 348.346649,312.611694 349.721100,314.102753 
	C363.568817,329.125092 377.508484,344.063293 391.494263,358.957611 
	C399.006195,366.957550 406.693451,374.792664 414.230072,382.769745 
	C417.419830,386.145966 420.390137,389.728394 423.522217,393.160461 
	C429.867767,400.113800 437.024658,406.142670 446.480255,407.935699 
	C456.197693,409.778351 466.061096,411.148773 475.922546,411.831757 
	C482.689819,412.300446 488.291962,414.588409 492.696869,419.328156 
	C498.897369,426.000000 504.640167,433.098907 510.540710,440.047455 
	C520.303223,451.543945 530.030396,463.070404 539.781738,474.576324 
	C548.566589,484.941772 557.355530,495.303650 566.157898,505.654175 
	C575.175415,516.257690 584.190918,526.863037 593.246277,537.434143 
	C599.488220,544.720825 605.077087,552.633789 614.341553,556.747742 
	C624.139465,561.098511 635.688660,558.807312 641.420349,550.971985 
	C646.943115,543.422363 646.646973,528.931335 638.757019,522.156311 
	C632.964233,517.182068 627.574036,511.739014 621.500366,506.001984 
M607.490967,382.000305 
	C619.781372,368.709381 632.699707,355.936584 644.202759,341.995941 
	C658.479980,324.693268 669.585632,305.295563 673.612305,282.877716 
	C674.948975,275.436249 674.253845,267.401855 673.177734,259.824585 
	C672.258728,253.353882 665.883179,251.325302 660.994507,255.493652 
	C649.890808,264.961151 638.661133,274.337036 628.197571,284.487213 
	C608.255249,303.832245 588.875061,323.755341 569.143188,343.319122 
	C553.066467,359.258911 536.814209,375.021637 520.650085,390.873444 
	C519.376709,392.122192 518.184570,393.453644 516.283020,395.452728 
	C528.962036,407.116577 541.230652,418.502838 553.637329,429.736633 
	C556.294312,432.142395 558.805603,431.963959 561.665405,428.977539 
	C576.631226,413.348969 591.856628,397.968933 607.490967,382.000305 
M636.160339,594.015930 
	C634.148743,596.249084 631.527100,598.176147 630.227539,600.766541 
	C623.342041,614.490662 616.788818,628.381531 610.019287,642.424561 
	C609.444153,641.781433 608.739807,641.265686 608.398254,640.571411 
	C602.966980,629.530762 597.569275,618.473572 592.189880,607.407532 
	C584.061401,590.686096 585.452759,594.478699 570.001160,593.974060 
	C565.799377,593.836914 563.945251,595.532837 563.960144,599.840759 
	C564.043823,623.984558 564.037842,648.128784 563.958557,672.272583 
	C563.947510,675.648682 565.090637,677.212097 568.599182,677.034485 
	C571.920837,676.866333 575.273132,676.798035 578.584106,677.050598 
	C582.735413,677.367371 584.047119,675.720215 584.096985,671.590149 
	C584.211731,662.072876 584.841736,652.561829 585.305725,642.073975 
	C586.518311,644.298767 587.305054,645.688843 588.042786,647.104431 
	C592.344360,655.359558 596.469482,663.712036 600.976807,671.853027 
	C605.178955,679.442810 613.778625,679.379456 618.046692,671.866028 
	C620.753967,667.100281 623.215515,662.195679 625.840027,657.382202 
	C628.317688,652.838013 630.864197,648.331421 633.712158,643.212036 
	C634.168762,653.564575 634.679199,663.005371 634.947937,672.453064 
	C635.035645,675.537598 635.966431,677.132812 639.277344,677.026794 
	C643.269470,676.899048 647.273438,676.880798 651.263489,677.037964 
	C654.069275,677.148560 655.048157,676.083862 655.039978,673.275085 
	C654.967346,648.298706 654.969055,623.322021 655.030823,598.345581 
	C655.038879,595.094360 653.674866,593.878601 650.519531,593.969421 
	C646.027527,594.098877 641.528931,594.002136 636.160339,594.015930 
M398.148834,650.336609 
	C401.734161,657.480286 405.335785,664.615845 408.899109,671.770508 
	C411.273407,676.537659 415.311188,677.172363 420.171448,677.135071 
	C424.505249,677.101807 425.813568,674.431152 427.317719,671.379456 
	C431.219421,663.463623 435.162048,655.567322 439.164673,647.702087 
	C439.923920,646.210205 441.034912,644.897278 441.983612,643.501770 
	C442.322418,643.631714 442.661194,643.761597 443.000000,643.891479 
	C443.000000,645.500244 442.999908,647.108948 443.000031,648.717712 
	C443.000671,656.048584 442.724213,663.396484 443.173676,670.699768 
	C443.305664,672.844238 445.269409,676.432190 446.785889,676.651917 
	C451.943542,677.399353 457.276398,676.937744 462.402496,676.937744 
	C465.003723,660.585571 464.693420,601.926819 461.950623,594.008362 
	C456.281952,594.008362 450.466156,593.857666 444.669220,594.121826 
	C443.337280,594.182495 441.474548,595.363159 440.867706,596.546997 
	C436.086334,605.874817 431.528442,615.317688 426.947205,624.747253 
	C424.032990,630.745544 421.196350,636.781494 418.228333,643.003052 
	C412.262695,630.880066 406.710480,619.357605 400.947266,607.941650 
	C392.300507,590.813843 396.316010,594.429077 377.771240,594.001404 
	C377.604736,593.997559 377.437378,594.012878 377.271515,594.002258 
	C374.388062,593.818237 372.975037,595.014404 372.980316,598.058411 
	C373.023895,623.216492 373.028229,648.374817 372.970367,673.532898 
	C372.964417,676.128601 373.930542,677.115723 376.497986,677.027588 
	C380.159058,676.901855 383.840515,676.808411 387.489471,677.054321 
	C390.960175,677.288208 392.150909,676.075134 392.069977,672.541992 
	C391.860199,663.383179 391.986572,654.216370 392.013336,645.052917 
	C392.017792,643.528809 392.196045,642.005188 392.293976,640.481384 
	C392.609009,640.463440 392.924072,640.445496 393.239105,640.427551 
	C394.775024,643.503052 396.310944,646.578552 398.148834,650.336609 
M418.499939,550.000305 
	C423.078064,544.755310 427.695923,539.544434 432.225647,534.257935 
	C440.420410,524.694153 448.629944,515.141663 456.710144,505.481445 
	C467.548523,492.523651 478.259613,479.459534 489.046997,466.459015 
	C492.750488,461.995667 496.731354,457.741608 500.146698,453.071075 
	C501.401489,451.355072 502.615051,447.719543 501.753540,446.656219 
	C496.681152,440.395844 490.990784,434.636200 485.424316,428.616791 
	C479.980042,433.508606 475.114685,437.746277 470.398926,442.144287 
	C459.222412,452.567810 448.051208,462.998657 436.997772,473.552124 
	C419.560730,490.200592 402.141663,506.869568 384.874939,523.694031 
	C375.983978,532.357300 378.771545,550.290344 389.677704,556.322998 
	C399.074738,561.520935 409.030243,559.476318 418.499939,550.000305 
M351.493042,664.864136 
	C356.352448,658.575745 358.399261,651.001038 358.770813,643.501953 
	C359.494965,628.885193 359.042145,614.207031 358.949158,599.555115 
	C358.925842,595.876648 357.190430,593.672424 353.026581,593.954834 
	C349.711700,594.179626 346.364105,594.118591 343.040588,593.970215 
	C338.866089,593.783813 337.002716,595.471252 336.946747,599.800720 
	C336.751343,614.913086 336.286713,630.021790 336.018188,645.133545 
	C335.866638,653.659729 330.509766,659.013367 321.906372,659.000061 
	C313.502747,658.987061 308.128326,653.491760 307.981293,645.009033 
	C307.713623,629.564270 307.262085,614.122437 307.053772,598.677063 
	C307.007660,595.259399 305.812988,593.805542 302.351685,593.963989 
	C298.696198,594.131287 295.012024,594.208862 291.367859,593.945557 
	C287.162750,593.641846 285.880280,595.370361 285.929169,599.459900 
	C286.108337,614.443420 286.322845,629.439026 285.918640,644.413757 
	C285.409241,663.285278 301.278595,678.033813 319.930878,678.972656 
	C332.481659,679.604370 343.003448,675.301514 351.493042,664.864136 
M534.595459,675.084839 
	C539.551208,675.723206 544.491150,676.643677 549.467041,676.920898 
	C554.482056,677.200317 556.106934,674.451355 554.264160,669.601257 
	C552.850403,665.880249 551.414185,662.167786 549.985229,658.452576 
	C542.543213,639.104980 535.167297,619.731567 527.603760,600.431641 
	C526.008789,596.361816 523.236145,593.481628 518.139465,593.940369 
	C514.671814,594.252441 511.149933,594.097290 507.658752,593.971619 
	C504.562592,593.860291 502.949921,595.122314 501.771362,598.098145 
	C492.732422,620.920410 483.428528,643.637939 474.425079,666.473938 
	C473.227051,669.512634 473.254944,673.034729 472.605927,677.000000 
	C476.741791,677.000000 479.798431,676.520142 482.643829,677.091736 
	C490.546265,678.679382 494.804657,675.160278 496.489258,667.853699 
	C497.265747,664.485901 499.297791,663.973816 502.310913,663.930847 
	C507.932587,663.850586 513.562805,663.515259 519.163452,663.002136 
	C528.847656,662.114868 529.185120,662.266724 532.348022,671.482666 
	C532.717346,672.558838 533.469238,673.503723 534.595459,675.084839 
M691.006409,657.403198 
	C691.342896,663.025879 691.584290,668.657410 692.107849,674.262634 
	C692.196838,675.216370 693.464783,676.798767 694.240356,676.830994 
	C699.665344,677.056213 705.104065,676.950073 711.080872,676.950073 
	C711.410828,670.491638 712.412048,664.654114 711.844360,658.973389 
	C710.841003,648.933350 714.089355,640.756348 719.674805,632.629639 
	C726.619995,622.524597 732.572021,611.733398 738.866638,601.186951 
	C740.904175,597.773132 739.916992,594.676025 736.842957,594.029053 
	C724.213135,591.371460 718.116943,594.224609 712.206421,605.562927 
	C711.975647,606.005676 711.793091,606.475098 711.543701,606.906433 
	C708.455139,612.248718 705.358459,617.586182 701.898071,623.555969 
	C698.866516,617.946533 696.128052,613.099915 693.596252,608.147644 
	C688.723450,598.616577 682.817200,590.925232 670.308960,593.980225 
	C669.680054,594.133850 668.927002,593.835266 668.325012,594.032166 
	C666.727295,594.554626 664.399963,594.834351 663.825562,595.958191 
	C663.205078,597.172180 663.797668,599.500244 664.627808,600.881653 
	C670.097839,609.984314 676.012817,618.825439 681.315552,628.021179 
	C686.379028,636.802124 693.203247,645.122986 691.006409,657.403198 
M487.843628,290.185669 
	C499.587219,286.873383 511.676666,287.431519 523.530823,288.258514 
	C533.321045,288.941528 543.334839,290.829285 552.553162,294.128662 
	C562.919617,297.839020 572.591064,303.568756 582.393311,308.744812 
	C587.112183,311.236664 588.138855,306.921997 590.268005,304.993378 
	C592.831299,302.671356 590.764465,300.782166 588.735046,299.475647 
	C585.945068,297.679413 582.964539,296.182465 580.118103,294.470154 
	C560.477661,282.655212 538.987000,277.093170 516.291199,276.062042 
	C495.821472,275.132019 476.546570,280.361847 457.983185,288.579285 
	C456.882477,289.066498 455.984558,290.011932 454.991821,290.744476 
	C460.951660,298.721527 462.225403,298.999573 470.063934,296.031525 
	C475.631439,293.923492 481.386200,292.309937 487.843628,290.185669 
M643.503235,374.006592 
	C642.367737,371.283325 641.232178,368.560028 640.096680,365.836731 
	C639.312134,365.776093 638.527588,365.715485 637.743042,365.654846 
	C636.196106,368.656494 633.655090,371.564941 633.362610,374.684235 
	C633.023621,378.300262 634.526733,382.135345 635.461731,385.816528 
	C639.780762,402.821991 639.497131,419.850433 635.859009,436.903931 
	C632.634399,452.018829 626.325745,465.809113 617.889221,478.696381 
	C616.651184,480.587494 615.818420,482.743896 614.808533,484.756775 
	C617.374634,487.015564 619.572327,488.950073 622.257629,491.313812 
	C648.325684,455.564575 655.971924,417.015472 643.503235,374.006592 
M377.179779,434.078339 
	C380.790680,445.232849 383.840057,456.613831 388.214233,467.460541 
	C391.027435,474.436462 395.594269,480.757538 399.835938,487.062042 
	C400.712189,488.364380 405.031616,489.207886 405.362396,488.699646 
	C406.833923,486.438934 408.831879,483.079742 408.077240,481.088928 
	C406.043243,475.723206 402.746948,470.827240 399.869690,465.791626 
	C391.717102,451.523346 388.417328,435.841461 387.108154,419.754547 
	C386.053772,406.799103 387.372192,393.937531 391.035980,381.354645 
	C392.781586,375.359528 390.125092,371.241577 383.677673,369.259033 
	C378.834412,380.111359 376.591339,391.644043 376.149017,403.376495 
	C375.775085,413.295654 376.698486,423.263702 377.179779,434.078339 
M497.795258,531.954529 
	C494.709595,531.410950 491.535828,531.161438 488.554840,530.268555 
	C479.683441,527.611389 470.799438,524.945190 462.098450,521.791138 
	C457.486542,520.119324 455.809082,522.361572 454.039246,525.806519 
	C451.898621,529.973206 455.577454,530.135986 457.611847,531.253174 
	C469.986298,538.048767 483.333954,541.495117 497.312622,543.110107 
	C521.253967,545.876099 544.222351,542.850830 566.045349,532.399170 
	C567.852234,531.533813 569.280640,529.878113 570.884888,528.589600 
	C569.219421,526.873718 567.826965,524.601196 565.806030,523.610046 
	C564.045349,522.746460 561.486267,522.922729 559.440979,523.372192 
	C556.718689,523.970459 554.192627,525.404053 551.512878,526.262024 
	C534.305298,531.771606 516.784180,534.497009 497.795258,531.954529 
M533.787354,354.733704 
	C534.369141,356.375061 534.950989,358.016418 535.532776,359.657806 
	C537.057861,358.906525 538.765991,358.386932 540.070496,357.356445 
	C542.927551,355.099518 545.742126,352.742310 548.286133,350.144165 
	C556.542175,341.712311 564.755432,333.234009 572.778198,324.581726 
	C574.585754,322.632355 575.554932,319.905640 576.910034,317.536713 
	C574.450012,316.387604 571.994751,315.228088 569.523560,314.103546 
	C569.239380,313.974213 568.864929,314.052765 568.534912,314.013275 
	C545.964417,311.311493 526.028687,334.242889 533.787354,354.733704 
M504.972656,504.468109 
	C501.130310,502.228607 497.436707,499.666473 493.416412,497.812897 
	C483.234589,493.118469 480.331696,493.986267 473.427246,502.948639 
	C473.124451,503.341705 472.763763,503.690033 472.432373,504.061279 
	C465.500549,511.826263 465.520905,512.040466 474.855377,515.924866 
	C485.464478,520.339600 496.441132,523.019165 508.020752,523.055176 
	C511.033386,523.064575 511.755890,522.021545 512.129456,519.070862 
	C512.929382,512.752258 509.836823,508.662170 504.972656,504.468109 
M476.052826,304.478333 
	C472.822144,306.025452 474.202637,307.705414 475.905212,309.404999 
	C480.483795,313.975708 485.288940,318.347321 489.557190,323.191772 
	C492.649689,326.701752 496.308441,326.876099 499.260742,324.588593 
	C506.659363,318.855927 513.178467,312.340179 513.091064,301.786194 
	C513.061157,298.178375 512.214050,296.749207 508.369629,296.932098 
	C497.365936,297.455414 486.828888,299.800537 476.052826,304.478333 
M605.443420,399.287567 
	C603.279419,403.036041 604.298767,406.604797 606.060547,410.128418 
	C609.417542,416.842682 615.576904,419.930664 622.116211,422.523438 
	C626.987549,424.454926 628.813477,423.363434 628.959290,418.051086 
	C629.123047,412.082275 629.521240,406.045441 628.848877,400.148651 
	C628.140869,393.939362 627.035583,387.612213 623.185852,381.379272 
	C617.071777,387.496521 611.480408,393.090790 605.443420,399.287567 
M431.623657,417.976624 
	C430.840424,419.565826 430.057220,421.155029 428.929840,423.442474 
	C436.941437,426.131561 440.528198,432.284698 443.289734,439.274109 
	C443.770477,440.490814 445.690918,441.375885 447.132294,441.933594 
	C452.550598,444.029999 456.774719,442.602051 460.626984,438.040405 
	C465.049561,432.803436 470.206940,428.186981 475.083923,423.261841 
	C474.228790,422.555359 474.001099,422.201660 473.741608,422.176605 
	C460.939148,420.937988 447.984924,420.765503 435.625946,416.446930 
	C434.683563,416.117645 433.293701,417.068970 431.623657,417.976624 
M412.179413,419.830292 
	C414.639771,418.200317 417.387238,416.874664 419.502472,414.878937 
	C424.330231,410.323853 424.173889,407.698425 419.400177,402.913727 
	C415.885559,399.391052 412.476135,395.752563 408.806946,392.398621 
	C406.132019,389.953552 403.110077,387.888062 400.097137,385.539795 
	C395.523804,397.654388 397.422852,409.325104 396.990356,420.816650 
	C396.866577,424.105621 398.830139,424.453857 401.182831,423.728516 
	C404.653412,422.658569 408.024994,421.267700 412.179413,419.830292 
M617.000000,724.606445 
	C615.844055,720.752502 615.575073,716.260498 613.354065,713.172668 
	C608.164307,705.957642 601.056335,701.706360 591.532776,702.936890 
	C588.422607,703.338684 585.202881,703.187012 582.058105,702.953735 
	C578.027039,702.654724 576.867554,704.456970 576.940369,708.256470 
	C577.122131,717.739319 577.000000,727.227966 577.000000,736.714294 
	C576.999939,751.004578 577.031799,750.406677 591.497314,751.176575 
	C604.662903,751.877197 619.555298,738.438538 617.000000,724.606445 
M453.765747,735.474487 
	C456.244324,741.317444 460.031372,746.082458 465.843475,748.788269 
	C475.696503,753.375122 487.532349,751.241760 495.150360,742.547424 
	C501.884888,734.861389 502.712616,726.175110 499.749023,717.476501 
	C496.857605,708.989685 489.459961,703.698364 480.842102,702.196594 
	C461.272278,698.786194 446.954498,717.715393 453.765747,735.474487 
M534.888916,750.996521 
	C544.170105,752.109497 551.262756,748.355469 557.168762,741.412537 
	C561.650635,736.143677 564.149231,723.333923 561.131775,717.406006 
	C556.073608,707.468994 548.501953,701.807251 536.669739,701.877380 
	C520.068176,701.975769 509.275726,720.302856 515.487793,736.041809 
	C518.870422,744.612061 525.401855,749.024109 534.888916,750.996521 
M399.193115,436.891724 
	C400.617798,444.123871 403.094086,450.887604 407.608765,457.486420 
	C413.686493,449.760468 420.413086,444.492706 429.180573,441.997681 
	C432.720367,440.990326 433.099548,438.053986 430.085205,435.769379 
	C425.468994,432.270691 420.646912,428.331879 414.382263,430.123352 
	C409.265137,431.586731 404.459351,434.138763 399.193115,436.891724 
M514.440247,340.944031 
	C510.919434,339.236603 507.398621,337.529175 503.877808,335.821777 
	C503.555420,336.222809 503.233002,336.623871 502.910583,337.024902 
	C511.268616,350.986145 511.622498,366.759888 513.177063,382.675079 
	C514.944397,381.458069 516.429321,380.856262 517.291931,379.763336 
	C519.986145,376.349762 524.133179,372.989197 524.671997,369.177582 
	C526.161499,358.642303 523.803467,348.721375 514.440247,340.944031 
M620.486938,453.954498 
	C622.109314,448.762573 623.806641,443.591919 625.293274,438.361420 
	C625.606262,437.260162 625.615173,435.537933 624.968872,434.781494 
	C618.661682,427.400360 604.181946,428.801422 599.541809,437.326782 
	C598.453491,439.326416 596.555786,441.883331 600.149170,444.156281 
	C604.726013,447.051331 608.879272,450.607758 613.317627,453.733490 
	C615.339783,455.157593 617.433777,457.608307 620.486938,453.954498 
M415.000000,738.511353 
	C415.000000,737.180847 415.163361,735.826172 414.970154,734.524353 
	C414.327026,730.190735 415.905212,728.501404 420.426453,728.915527 
	C424.714478,729.308228 429.081390,729.201904 433.383240,728.892700 
	C434.967926,728.778870 436.465881,727.457764 438.003418,726.687317 
	C437.813446,725.998474 437.623505,725.309631 437.433533,724.620789 
	C433.037445,724.413879 428.642853,724.081421 424.244904,724.027466 
	C416.323975,723.930176 416.362457,723.997803 415.956940,716.322754 
	C415.870697,714.689758 415.355652,713.082581 415.086700,711.455444 
	C414.585388,708.422485 415.413818,706.810730 418.972443,706.937866 
	C425.284149,707.163330 431.613983,707.127441 437.926544,706.914246 
	C439.587158,706.858093 441.212311,705.750488 442.853729,705.125793 
	C441.296173,704.417175 439.754974,703.142029 438.178284,703.096436 
	C430.700592,702.880554 423.206390,703.191833 415.731934,702.926025 
	C411.448730,702.773743 409.829865,704.120117 409.915375,708.583008 
	C410.157471,721.217896 409.986908,733.860413 410.018890,746.499817 
	C410.022400,747.891785 410.284637,749.283081 410.426849,750.674683 
	C411.008423,750.903015 411.589966,751.131287 412.171539,751.359619 
	C413.113525,749.729797 414.511200,748.196777 414.883118,746.445923 
	C415.356445,744.217957 414.999176,741.813538 415.000000,738.511353 
M514.492798,489.006348 
	C512.719849,491.227173 509.582581,493.048370 512.139343,496.586029 
	C517.710083,504.294006 533.615845,505.648224 540.487000,498.800903 
	C541.611145,497.680634 542.611938,494.776123 541.976196,493.805969 
	C535.272644,483.575745 525.207581,479.718842 514.492798,489.006348 
M441.803406,454.430084 
	C443.424713,451.240417 440.334381,451.592621 439.079315,451.282837 
	C428.055725,448.562073 416.372711,459.381592 414.526123,466.500031 
	C413.915680,468.853333 415.165894,471.853973 416.118683,474.347107 
	C416.401855,475.087952 419.230194,475.839905 419.773834,475.348785 
	C427.121674,468.710510 434.271973,461.853607 441.803406,454.430084 
M605.779663,475.321075 
	C610.698914,472.859161 612.059082,469.186218 609.730286,464.652924 
	C606.066956,457.521790 596.717468,452.248596 588.649780,453.092651 
	C586.682312,453.298462 584.824463,454.552521 582.540405,455.476624 
	C586.436279,459.198303 589.296936,462.185822 592.426880,464.858063 
	C596.558105,468.385101 600.900513,471.664856 605.779663,475.321075 
M528.473877,522.000000 
	C536.548767,519.710999 544.644104,517.490173 552.684753,515.086670 
	C554.786987,514.458313 557.409119,512.900452 555.421570,510.549896 
	C553.826721,508.663849 549.985596,506.441589 548.413513,507.158508 
	C541.554443,510.286194 534.777527,513.008606 527.101318,513.221375 
	C523.979797,513.307861 522.797180,515.296814 522.894287,518.621948 
	C523.001465,522.291016 525.161133,522.060425 528.473877,522.000000 
M538.048340,312.839142 
	C542.676758,310.485565 547.305176,308.131989 551.953430,305.768311 
	C548.785828,301.194000 530.964233,296.848541 524.381836,298.900970 
	C523.253906,308.163788 523.533081,308.650635 532.023804,311.494720 
	C533.745483,312.071411 535.526855,312.469788 538.048340,312.839142 
M567.041748,438.500977 
	C567.052673,439.515015 566.659607,440.808411 567.137512,441.499512 
	C571.501526,447.810394 582.137634,447.750916 586.705566,441.489471 
	C589.034302,438.297363 588.192688,436.080872 584.200012,435.030273 
	C582.438354,434.566711 580.337646,434.684021 578.923218,433.740051 
	C574.588440,430.847168 571.894470,433.057007 569.277832,436.218109 
	C568.748718,436.857330 568.109985,437.405762 567.041748,438.500977 
M496.498779,474.001984 
	C494.753174,476.181335 492.847656,478.253571 491.299438,480.565125 
	C488.963989,484.051941 489.745087,485.870605 493.747864,486.975494 
	C504.005859,489.806976 504.005798,489.807037 503.999939,479.120270 
	C503.999390,478.129822 504.275208,477.030457 503.937378,476.172791 
	C503.332489,474.637177 502.665039,472.537506 501.445679,472.010101 
	C500.379822,471.549133 498.519226,472.925537 496.498779,474.001984 
M598.555969,417.122070 
	C596.812744,414.817291 595.951294,410.387268 591.750977,413.019806 
	C589.018921,414.732056 586.764038,417.420410 584.784363,420.040863 
	C583.513367,421.723206 582.844238,424.526672 586.213318,424.857391 
	C589.449219,425.175018 592.848633,424.980194 596.036255,424.327332 
	C599.527039,423.612457 601.189148,421.397888 598.555969,417.122070 
M524.474670,331.033020 
	C525.208557,329.540649 525.951172,328.052490 526.674622,326.555084 
	C528.424316,322.933167 527.593018,320.709595 523.444824,319.636688 
	C518.763428,318.425842 515.569946,321.012177 513.557922,328.596710 
	C517.238281,329.057220 519.024841,335.012604 524.474670,331.033020 
M516.342346,475.751129 
	C518.474060,475.064270 520.605835,474.377441 524.049072,473.268036 
	C519.992737,468.605896 516.650391,464.623657 513.097412,460.839081 
	C512.589539,460.298065 511.062836,460.713531 510.007629,460.686340 
	C509.981873,461.724182 509.689697,462.844238 509.979889,463.784607 
	C510.891296,466.738190 511.909332,469.672058 513.119568,472.514130 
	C513.646973,473.752655 514.742676,474.749237 516.342346,475.751129 
z"/>
<path fill="#FFF4E6" opacity="1.000000" stroke="none" 
	d="
M621.752380,506.253418 
	C627.574036,511.739014 632.964233,517.182068 638.757019,522.156311 
	C646.646973,528.931335 646.943115,543.422363 641.420349,550.971985 
	C635.688660,558.807312 624.139465,561.098511 614.341553,556.747742 
	C605.077087,552.633789 599.488220,544.720825 593.246277,537.434143 
	C584.190918,526.863037 575.175415,516.257690 566.157898,505.654175 
	C557.355530,495.303650 548.566589,484.941772 539.781738,474.576324 
	C530.030396,463.070404 520.303223,451.543945 510.540710,440.047455 
	C504.640167,433.098907 498.897369,426.000000 492.696869,419.328156 
	C488.291962,414.588409 482.689819,412.300446 475.922546,411.831757 
	C466.061096,411.148773 456.197693,409.778351 446.480255,407.935699 
	C437.024658,406.142670 429.867767,400.113800 423.522217,393.160461 
	C420.390137,389.728394 417.419830,386.145966 414.230072,382.769745 
	C406.693451,374.792664 399.006195,366.957550 391.494263,358.957611 
	C377.508484,344.063293 363.568817,329.125092 349.721100,314.102753 
	C348.346649,312.611694 347.739899,310.412964 346.732788,308.457092 
	C349.528320,305.516632 351.762665,305.381378 354.580933,308.009430 
	C366.844543,319.445251 379.277588,330.699127 391.577148,342.096710 
	C402.178772,351.920837 412.723572,361.807281 423.204742,371.759644 
	C426.203217,374.606873 429.382507,375.070221 432.583557,372.733154 
	C435.175140,370.841034 434.540405,366.074738 431.533722,363.055420 
	C419.894592,351.367218 408.215881,339.718445 396.553284,328.053619 
	C386.810699,318.309113 377.108246,308.523926 367.297974,298.848053 
	C365.204346,296.783112 364.200165,294.820099 366.536255,292.500031 
	C368.888092,290.164337 370.797638,291.316223 372.890381,293.324158 
	C394.843781,314.388184 416.866730,335.379761 438.899780,356.360596 
	C439.951935,357.362518 441.318756,358.833252 442.468750,358.771759 
	C445.103912,358.630890 449.373230,358.318756 449.915009,356.903381 
	C450.745300,354.734009 449.572510,351.231537 448.190643,348.931152 
	C446.608643,346.297668 443.870087,344.358398 441.631653,342.119873 
	C422.074646,322.562195 402.502380,303.019745 382.995453,283.412231 
	C381.791840,282.202484 380.433685,280.501160 380.388947,278.991760 
	C380.354279,277.822662 382.057739,276.103058 383.373322,275.559418 
	C384.331268,275.163605 386.218567,275.943817 387.174164,276.786407 
	C394.393158,283.151978 401.595428,289.545013 408.588593,296.156219 
	C418.620789,305.640442 428.446045,315.343170 438.409515,324.900665 
	C443.804749,330.076050 449.186401,335.278442 454.828857,340.175140 
	C456.453888,341.585419 458.991241,342.660522 461.059509,342.580322 
	C462.338104,342.530792 464.769073,339.702118 464.510742,338.658905 
	C463.759827,335.626709 462.365967,332.496674 460.394531,330.082611 
	C457.248657,326.230438 453.402985,322.954651 449.906036,319.383453 
	C435.351074,304.519562 420.798157,289.653564 406.292389,274.741760 
	C404.100311,272.488342 401.883453,270.164856 400.214691,267.533447 
	C399.279999,266.059601 399.447601,263.886749 399.118530,262.028870 
	C401.243042,262.037537 404.059326,261.165710 405.377197,262.201080 
	C412.670319,267.930939 419.764130,273.943726 426.619415,280.195984 
	C444.163696,296.197052 461.538666,312.383636 479.001587,328.474060 
	C481.561401,330.832703 484.104980,333.238678 486.873199,335.336212 
	C498.012421,343.776520 500.902710,355.593567 501.047791,368.716400 
	C501.124756,375.675323 501.106171,382.722656 502.228851,389.549469 
	C502.889893,393.569092 504.818542,398.154938 507.689240,400.911133 
	C526.737305,419.199493 546.172302,437.085693 565.530029,455.050415 
	C572.951233,461.937622 580.501343,468.685944 587.989990,475.500549 
	C599.161316,485.666321 610.330383,495.834717 621.752380,506.253418 
z"/>
<path fill="#FFF4E6" opacity="1.000000" stroke="none" 
	d="
M607.241394,382.251404 
	C591.856628,397.968933 576.631226,413.348969 561.665405,428.977539 
	C558.805603,431.963959 556.294312,432.142395 553.637329,429.736633 
	C541.230652,418.502838 528.962036,407.116577 516.283020,395.452728 
	C518.184570,393.453644 519.376709,392.122192 520.650085,390.873444 
	C536.814209,375.021637 553.066467,359.258911 569.143188,343.319122 
	C588.875061,323.755341 608.255249,303.832245 628.197571,284.487213 
	C638.661133,274.337036 649.890808,264.961151 660.994507,255.493652 
	C665.883179,251.325302 672.258728,253.353882 673.177734,259.824585 
	C674.253845,267.401855 674.948975,275.436249 673.612305,282.877716 
	C669.585632,305.295563 658.479980,324.693268 644.202759,341.995941 
	C632.699707,355.936584 619.781372,368.709381 607.241394,382.251404 
z"/>
<path fill="#FFF4E6" opacity="1.000000" stroke="none" 
	d="
M636.596741,594.008911 
	C641.528931,594.002136 646.027527,594.098877 650.519531,593.969421 
	C653.674866,593.878601 655.038879,595.094360 655.030823,598.345581 
	C654.969055,623.322021 654.967346,648.298706 655.039978,673.275085 
	C655.048157,676.083862 654.069275,677.148560 651.263489,677.037964 
	C647.273438,676.880798 643.269470,676.899048 639.277344,677.026794 
	C635.966431,677.132812 635.035645,675.537598 634.947937,672.453064 
	C634.679199,663.005371 634.168762,653.564575 633.712158,643.212036 
	C630.864197,648.331421 628.317688,652.838013 625.840027,657.382202 
	C623.215515,662.195679 620.753967,667.100281 618.046692,671.866028 
	C613.778625,679.379456 605.178955,679.442810 600.976807,671.853027 
	C596.469482,663.712036 592.344360,655.359558 588.042786,647.104431 
	C587.305054,645.688843 586.518311,644.298767 585.305725,642.073975 
	C584.841736,652.561829 584.211731,662.072876 584.096985,671.590149 
	C584.047119,675.720215 582.735413,677.367371 578.584106,677.050598 
	C575.273132,676.798035 571.920837,676.866333 568.599182,677.034485 
	C565.090637,677.212097 563.947510,675.648682 563.958557,672.272583 
	C564.037842,648.128784 564.043823,623.984558 563.960144,599.840759 
	C563.945251,595.532837 565.799377,593.836914 570.001160,593.974060 
	C585.452759,594.478699 584.061401,590.686096 592.189880,607.407532 
	C597.569275,618.473572 602.966980,629.530762 608.398254,640.571411 
	C608.739807,641.265686 609.444153,641.781433 610.019287,642.424561 
	C616.788818,628.381531 623.342041,614.490662 630.227539,600.766541 
	C631.527100,598.176147 634.148743,596.249084 636.596741,594.008911 
z"/>
<path fill="#FFF4E6" opacity="1.000000" stroke="none" 
	d="
M397.997864,649.995361 
	C396.310944,646.578552 394.775024,643.503052 393.239105,640.427551 
	C392.924072,640.445496 392.609009,640.463440 392.293976,640.481384 
	C392.196045,642.005188 392.017792,643.528809 392.013336,645.052917 
	C391.986572,654.216370 391.860199,663.383179 392.069977,672.541992 
	C392.150909,676.075134 390.960175,677.288208 387.489471,677.054321 
	C383.840515,676.808411 380.159058,676.901855 376.497986,677.027588 
	C373.930542,677.115723 372.964417,676.128601 372.970367,673.532898 
	C373.028229,648.374817 373.023895,623.216492 372.980316,598.058411 
	C372.975037,595.014404 374.388062,593.818237 377.271515,594.002258 
	C377.437378,594.012878 377.604736,593.997559 377.771240,594.001404 
	C396.316010,594.429077 392.300507,590.813843 400.947266,607.941650 
	C406.710480,619.357605 412.262695,630.880066 418.228333,643.003052 
	C421.196350,636.781494 424.032990,630.745544 426.947205,624.747253 
	C431.528442,615.317688 436.086334,605.874817 440.867706,596.546997 
	C441.474548,595.363159 443.337280,594.182495 444.669220,594.121826 
	C450.466156,593.857666 456.281952,594.008362 461.950623,594.008362 
	C464.693420,601.926819 465.003723,660.585571 462.402496,676.937744 
	C457.276398,676.937744 451.943542,677.399353 446.785889,676.651917 
	C445.269409,676.432190 443.305664,672.844238 443.173676,670.699768 
	C442.724213,663.396484 443.000671,656.048584 443.000031,648.717712 
	C442.999908,647.108948 443.000000,645.500244 443.000000,643.891479 
	C442.661194,643.761597 442.322418,643.631714 441.983612,643.501770 
	C441.034912,644.897278 439.923920,646.210205 439.164673,647.702087 
	C435.162048,655.567322 431.219421,663.463623 427.317719,671.379456 
	C425.813568,674.431152 424.505249,677.101807 420.171448,677.135071 
	C415.311188,677.172363 411.273407,676.537659 408.899109,671.770508 
	C405.335785,664.615845 401.734161,657.480286 397.997864,649.995361 
z"/>
<path fill="#FFF4E6" opacity="1.000000" stroke="none" 
	d="
M418.246338,550.254089 
	C409.030243,559.476318 399.074738,561.520935 389.677704,556.322998 
	C378.771545,550.290344 375.983978,532.357300 384.874939,523.694031 
	C402.141663,506.869568 419.560730,490.200592 436.997772,473.552124 
	C448.051208,462.998657 459.222412,452.567810 470.398926,442.144287 
	C475.114685,437.746277 479.980042,433.508606 485.424316,428.616791 
	C490.990784,434.636200 496.681152,440.395844 501.753540,446.656219 
	C502.615051,447.719543 501.401489,451.355072 500.146698,453.071075 
	C496.731354,457.741608 492.750488,461.995667 489.046997,466.459015 
	C478.259613,479.459534 467.548523,492.523651 456.710144,505.481445 
	C448.629944,515.141663 440.420410,524.694153 432.225647,534.257935 
	C427.695923,539.544434 423.078064,544.755310 418.246338,550.254089 
z"/>
<path fill="#FFF4E6" opacity="1.000000" stroke="none" 
	d="
M351.264984,665.144226 
	C343.003448,675.301514 332.481659,679.604370 319.930878,678.972656 
	C301.278595,678.033813 285.409241,663.285278 285.918640,644.413757 
	C286.322845,629.439026 286.108337,614.443420 285.929169,599.459900 
	C285.880280,595.370361 287.162750,593.641846 291.367859,593.945557 
	C295.012024,594.208862 298.696198,594.131287 302.351685,593.963989 
	C305.812988,593.805542 307.007660,595.259399 307.053772,598.677063 
	C307.262085,614.122437 307.713623,629.564270 307.981293,645.009033 
	C308.128326,653.491760 313.502747,658.987061 321.906372,659.000061 
	C330.509766,659.013367 335.866638,653.659729 336.018188,645.133545 
	C336.286713,630.021790 336.751343,614.913086 336.946747,599.800720 
	C337.002716,595.471252 338.866089,593.783813 343.040588,593.970215 
	C346.364105,594.118591 349.711700,594.179626 353.026581,593.954834 
	C357.190430,593.672424 358.925842,595.876648 358.949158,599.555115 
	C359.042145,614.207031 359.494965,628.885193 358.770813,643.501953 
	C358.399261,651.001038 356.352448,658.575745 351.264984,665.144226 
z"/>
<path fill="#FFF4E6" opacity="1.000000" stroke="none" 
	d="
M534.319580,674.797119 
	C533.469238,673.503723 532.717346,672.558838 532.348022,671.482666 
	C529.185120,662.266724 528.847656,662.114868 519.163452,663.002136 
	C513.562805,663.515259 507.932587,663.850586 502.310913,663.930847 
	C499.297791,663.973816 497.265747,664.485901 496.489258,667.853699 
	C494.804657,675.160278 490.546265,678.679382 482.643829,677.091736 
	C479.798431,676.520142 476.741791,677.000000 472.605927,677.000000 
	C473.254944,673.034729 473.227051,669.512634 474.425079,666.473938 
	C483.428528,643.637939 492.732422,620.920410 501.771362,598.098145 
	C502.949921,595.122314 504.562592,593.860291 507.658752,593.971619 
	C511.149933,594.097290 514.671814,594.252441 518.139465,593.940369 
	C523.236145,593.481628 526.008789,596.361816 527.603760,600.431641 
	C535.167297,619.731567 542.543213,639.104980 549.985229,658.452576 
	C551.414185,662.167786 552.850403,665.880249 554.264160,669.601257 
	C556.106934,674.451355 554.482056,677.200317 549.467041,676.920898 
	C544.491150,676.643677 539.551208,675.723206 534.319580,674.797119 
M515.833984,624.879028 
	C514.626587,624.849426 512.509705,624.448792 512.347717,624.845703 
	C509.738037,631.242432 507.377106,637.740601 504.854675,644.497070 
	C510.999207,644.497070 516.326050,644.497070 522.744629,644.497070 
	C520.315857,637.672485 518.168701,631.639282 515.833984,624.879028 
z"/>
<path fill="#FFF4E6" opacity="1.000000" stroke="none" 
	d="
M691.005859,656.919189 
	C693.203247,645.122986 686.379028,636.802124 681.315552,628.021179 
	C676.012817,618.825439 670.097839,609.984314 664.627808,600.881653 
	C663.797668,599.500244 663.205078,597.172180 663.825562,595.958191 
	C664.399963,594.834351 666.727295,594.554626 668.325012,594.032166 
	C668.927002,593.835266 669.680054,594.133850 670.308960,593.980225 
	C682.817200,590.925232 688.723450,598.616577 693.596252,608.147644 
	C696.128052,613.099915 698.866516,617.946533 701.898071,623.555969 
	C705.358459,617.586182 708.455139,612.248718 711.543701,606.906433 
	C711.793091,606.475098 711.975647,606.005676 712.206421,605.562927 
	C718.116943,594.224609 724.213135,591.371460 736.842957,594.029053 
	C739.916992,594.676025 740.904175,597.773132 738.866638,601.186951 
	C732.572021,611.733398 726.619995,622.524597 719.674805,632.629639 
	C714.089355,640.756348 710.841003,648.933350 711.844360,658.973389 
	C712.412048,664.654114 711.410828,670.491638 711.080872,676.950073 
	C705.104065,676.950073 699.665344,677.056213 694.240356,676.830994 
	C693.464783,676.798767 692.196838,675.216370 692.107849,674.262634 
	C691.584290,668.657410 691.342896,663.025879 691.005859,656.919189 
z"/>
<path fill="#FFF4E6" opacity="1.000000" stroke="none" 
	d="
M487.450500,290.330688 
	C481.386200,292.309937 475.631439,293.923492 470.063934,296.031525 
	C462.225403,298.999573 460.951660,298.721527 454.991821,290.744476 
	C455.984558,290.011932 456.882477,289.066498 457.983185,288.579285 
	C476.546570,280.361847 495.821472,275.132019 516.291199,276.062042 
	C538.987000,277.093170 560.477661,282.655212 580.118103,294.470154 
	C582.964539,296.182465 585.945068,297.679413 588.735046,299.475647 
	C590.764465,300.782166 592.831299,302.671356 590.268005,304.993378 
	C588.138855,306.921997 587.112183,311.236664 582.393311,308.744812 
	C572.591064,303.568756 562.919617,297.839020 552.553162,294.128662 
	C543.334839,290.829285 533.321045,288.941528 523.530823,288.258514 
	C511.676666,287.431519 499.587219,286.873383 487.450500,290.330688 
z"/>
<path fill="#FFF4E6" opacity="1.000000" stroke="none" 
	d="
M643.653687,374.372803 
	C655.971924,417.015472 648.325684,455.564575 622.257629,491.313812 
	C619.572327,488.950073 617.374634,487.015564 614.808533,484.756775 
	C615.818420,482.743896 616.651184,480.587494 617.889221,478.696381 
	C626.325745,465.809113 632.634399,452.018829 635.859009,436.903931 
	C639.497131,419.850433 639.780762,402.821991 635.461731,385.816528 
	C634.526733,382.135345 633.023621,378.300262 633.362610,374.684235 
	C633.655090,371.564941 636.196106,368.656494 637.743042,365.654846 
	C638.527588,365.715485 639.312134,365.776093 640.096680,365.836731 
	C641.232178,368.560028 642.367737,371.283325 643.653687,374.372803 
z"/>
<path fill="#FFF4E6" opacity="1.000000" stroke="none" 
	d="
M377.113770,433.644226 
	C376.698486,423.263702 375.775085,413.295654 376.149017,403.376495 
	C376.591339,391.644043 378.834412,380.111359 383.677673,369.259033 
	C390.125092,371.241577 392.781586,375.359528 391.035980,381.354645 
	C387.372192,393.937531 386.053772,406.799103 387.108154,419.754547 
	C388.417328,435.841461 391.717102,451.523346 399.869690,465.791626 
	C402.746948,470.827240 406.043243,475.723206 408.077240,481.088928 
	C408.831879,483.079742 406.833923,486.438934 405.362396,488.699646 
	C405.031616,489.207886 400.712189,488.364380 399.835938,487.062042 
	C395.594269,480.757538 391.027435,474.436462 388.214233,467.460541 
	C383.840057,456.613831 380.790680,445.232849 377.113770,433.644226 
z"/>
<path fill="#FFF4E6" opacity="1.000000" stroke="none" 
	d="
M498.248505,531.973022 
	C516.784180,534.497009 534.305298,531.771606 551.512878,526.262024 
	C554.192627,525.404053 556.718689,523.970459 559.440979,523.372192 
	C561.486267,522.922729 564.045349,522.746460 565.806030,523.610046 
	C567.826965,524.601196 569.219421,526.873718 570.884888,528.589600 
	C569.280640,529.878113 567.852234,531.533813 566.045349,532.399170 
	C544.222351,542.850830 521.253967,545.876099 497.312622,543.110107 
	C483.333954,541.495117 469.986298,538.048767 457.611847,531.253174 
	C455.577454,530.135986 451.898621,529.973206 454.039246,525.806519 
	C455.809082,522.361572 457.486542,520.119324 462.098450,521.791138 
	C470.799438,524.945190 479.683441,527.611389 488.554840,530.268555 
	C491.535828,531.161438 494.709595,531.410950 498.248505,531.973022 
z"/>
<path fill="#FFF4E6" opacity="1.000000" stroke="none" 
	d="
M533.637146,354.343140 
	C526.028687,334.242889 545.964417,311.311493 568.534912,314.013275 
	C568.864929,314.052765 569.239380,313.974213 569.523560,314.103546 
	C571.994751,315.228088 574.450012,316.387604 576.910034,317.536743 
	C575.554932,319.905640 574.585754,322.632355 572.778198,324.581726 
	C564.755432,333.234009 556.542175,341.712311 548.286133,350.144165 
	C545.742126,352.742310 542.927551,355.099518 540.070496,357.356445 
	C538.765991,358.386932 537.057861,358.906525 535.532776,359.657776 
	C534.950989,358.016418 534.369141,356.375061 533.637146,354.343140 
z"/>
<path fill="#FFF4E6" opacity="1.000000" stroke="none" 
	d="
M505.228455,504.724304 
	C509.836823,508.662170 512.929382,512.752258 512.129456,519.070862 
	C511.755890,522.021545 511.033386,523.064575 508.020752,523.055176 
	C496.441132,523.019165 485.464478,520.339600 474.855377,515.924866 
	C465.520905,512.040466 465.500549,511.826263 472.432373,504.061279 
	C472.763763,503.690033 473.124451,503.341705 473.427246,502.948639 
	C480.331696,493.986267 483.234589,493.118469 493.416412,497.812897 
	C497.436707,499.666473 501.130310,502.228607 505.228455,504.724304 
z"/>
<path fill="#FFF4E6" opacity="1.000000" stroke="none" 
	d="
M476.384155,304.302307 
	C486.828888,299.800537 497.365936,297.455414 508.369629,296.932098 
	C512.214050,296.749207 513.061157,298.178375 513.091064,301.786194 
	C513.178467,312.340179 506.659363,318.855927 499.260742,324.588593 
	C496.308441,326.876099 492.649689,326.701752 489.557190,323.191772 
	C485.288940,318.347321 480.483795,313.975708 475.905212,309.404999 
	C474.202637,307.705414 472.822144,306.025452 476.384155,304.302307 
z"/>
<path fill="#FFF4E6" opacity="1.000000" stroke="none" 
	d="
M605.666260,398.986328 
	C611.480408,393.090790 617.071777,387.496521 623.185852,381.379272 
	C627.035583,387.612213 628.140869,393.939362 628.848877,400.148651 
	C629.521240,406.045441 629.123047,412.082275 628.959290,418.051086 
	C628.813477,423.363434 626.987549,424.454926 622.116211,422.523438 
	C615.576904,419.930664 609.417542,416.842682 606.060547,410.128418 
	C604.298767,406.604797 603.279419,403.036041 605.666260,398.986328 
z"/>
<path fill="#FFF4E6" opacity="1.000000" stroke="none" 
	d="
M431.867737,417.700806 
	C433.293701,417.068970 434.683563,416.117645 435.625946,416.446930 
	C447.984924,420.765503 460.939148,420.937988 473.741608,422.176605 
	C474.001099,422.201660 474.228790,422.555359 475.083923,423.261841 
	C470.206940,428.186981 465.049561,432.803436 460.626984,438.040405 
	C456.774719,442.602051 452.550598,444.029999 447.132294,441.933594 
	C445.690918,441.375885 443.770477,440.490814 443.289734,439.274109 
	C440.528198,432.284698 436.941437,426.131561 428.929840,423.442474 
	C430.057220,421.155029 430.840424,419.565826 431.867737,417.700806 
z"/>
<path fill="#FFF4E6" opacity="1.000000" stroke="none" 
	d="
M411.809082,419.921906 
	C408.024994,421.267700 404.653412,422.658569 401.182831,423.728516 
	C398.830139,424.453857 396.866577,424.105621 396.990356,420.816650 
	C397.422852,409.325104 395.523804,397.654388 400.097137,385.539795 
	C403.110077,387.888062 406.132019,389.953552 408.806946,392.398621 
	C412.476135,395.752563 415.885559,399.391052 419.400177,402.913727 
	C424.173889,407.698425 424.330231,410.323853 419.502472,414.878937 
	C417.387238,416.874664 414.639771,418.200317 411.809082,419.921906 
z"/>
<path fill="#FFF4E6" opacity="1.000000" stroke="none" 
	d="
M617.000000,725.072021 
	C619.555298,738.438538 604.662903,751.877197 591.497314,751.176575 
	C577.031799,750.406677 576.999939,751.004578 577.000000,736.714294 
	C577.000000,727.227966 577.122131,717.739319 576.940369,708.256470 
	C576.867554,704.456970 578.027039,702.654724 582.058105,702.953735 
	C585.202881,703.187012 588.422607,703.338684 591.532776,702.936890 
	C601.056335,701.706360 608.164307,705.957642 613.354065,713.172668 
	C615.575073,716.260498 615.844055,720.752502 617.000000,725.072021 
M605.964844,711.466064 
	C599.583496,704.898987 591.401550,707.401489 583.794434,707.229675 
	C583.221680,707.216797 582.098755,709.130127 582.087158,710.157654 
	C581.962769,721.127136 581.974548,732.098999 582.078125,743.068909 
	C582.086914,743.993958 583.006226,745.694458 583.539368,745.709290 
	C588.833984,745.856384 594.736206,747.226196 599.325745,745.393372 
	C613.960815,739.548645 617.365845,723.025146 605.964844,711.466064 
z"/>
<path fill="#FFF4E6" opacity="1.000000" stroke="none" 
	d="
M453.588257,735.121033 
	C446.954498,717.715393 461.272278,698.786194 480.842102,702.196594 
	C489.459961,703.698364 496.857605,708.989685 499.749023,717.476501 
	C502.712616,726.175110 501.884888,734.861389 495.150360,742.547424 
	C487.532349,751.241760 475.696503,753.375122 465.843475,748.788269 
	C460.031372,746.082458 456.244324,741.317444 453.588257,735.121033 
M466.174530,709.470642 
	C454.003967,716.393555 454.738251,732.526184 461.585571,740.014465 
	C468.187744,747.234741 476.723694,748.092896 485.148834,744.775940 
	C491.452332,742.294189 495.166962,737.018616 496.248688,729.613342 
	C497.543274,720.751404 494.337799,714.074341 487.562042,709.564514 
	C481.216675,705.341003 473.839539,705.528748 466.174530,709.470642 
z"/>
<path fill="#FFF4E6" opacity="1.000000" stroke="none" 
	d="
M534.452393,750.986511 
	C525.401855,749.024109 518.870422,744.612061 515.487793,736.041809 
	C509.275726,720.302856 520.068176,701.975769 536.669739,701.877380 
	C548.501953,701.807251 556.073608,707.468994 561.131775,717.406006 
	C564.149231,723.333923 561.650635,736.143677 557.168762,741.412537 
	C551.262756,748.355469 544.170105,752.109497 534.452393,750.986511 
M525.031433,711.468933 
	C516.841064,717.654541 516.360657,729.353333 520.666443,736.512695 
	C527.334900,747.600891 542.257874,749.705750 551.698486,740.970215 
	C557.902039,735.229858 560.218384,725.504517 555.198914,716.503662 
	C549.294495,705.915955 534.421387,702.542297 525.031433,711.468933 
z"/>
<path fill="#FFF4E6" opacity="1.000000" stroke="none" 
	d="
M399.354309,436.549927 
	C404.459351,434.138763 409.265137,431.586731 414.382263,430.123352 
	C420.646912,428.331879 425.468994,432.270691 430.085205,435.769379 
	C433.099548,438.053986 432.720367,440.990326 429.180573,441.997681 
	C420.413086,444.492706 413.686493,449.760468 407.608765,457.486420 
	C403.094086,450.887604 400.617798,444.123871 399.354309,436.549927 
z"/>
<path fill="#FFF4E6" opacity="1.000000" stroke="none" 
	d="
M514.697144,341.199463 
	C523.803467,348.721375 526.161499,358.642303 524.671997,369.177582 
	C524.133179,372.989197 519.986145,376.349762 517.291931,379.763336 
	C516.429321,380.856262 514.944397,381.458069 513.177063,382.675079 
	C511.622498,366.759888 511.268616,350.986145 502.910583,337.024902 
	C503.233002,336.623871 503.555420,336.222809 503.877808,335.821777 
	C507.398621,337.529175 510.919434,339.236603 514.697144,341.199463 
z"/>
<path fill="#FFF4E6" opacity="1.000000" stroke="none" 
	d="
M620.304810,454.291687 
	C617.433777,457.608307 615.339783,455.157593 613.317627,453.733490 
	C608.879272,450.607758 604.726013,447.051331 600.149170,444.156281 
	C596.555786,441.883331 598.453491,439.326416 599.541809,437.326782 
	C604.181946,428.801422 618.661682,427.400360 624.968872,434.781494 
	C625.615173,435.537933 625.606262,437.260162 625.293274,438.361420 
	C623.806641,443.591919 622.109314,448.762573 620.304810,454.291687 
z"/>
<path fill="#FFF4E6" opacity="1.000000" stroke="none" 
	d="
M415.000000,738.998291 
	C414.999176,741.813538 415.356445,744.217957 414.883118,746.445923 
	C414.511200,748.196777 413.113525,749.729797 412.171539,751.359619 
	C411.589966,751.131287 411.008423,750.903015 410.426849,750.674683 
	C410.284637,749.283081 410.022400,747.891785 410.018890,746.499817 
	C409.986908,733.860413 410.157471,721.217896 409.915375,708.583008 
	C409.829865,704.120117 411.448730,702.773743 415.731934,702.926025 
	C423.206390,703.191833 430.700592,702.880554 438.178284,703.096436 
	C439.754974,703.142029 441.296173,704.417175 442.853729,705.125793 
	C441.212311,705.750488 439.587158,706.858093 437.926544,706.914246 
	C431.613983,707.127441 425.284149,707.163330 418.972443,706.937866 
	C415.413818,706.810730 414.585388,708.422485 415.086700,711.455444 
	C415.355652,713.082581 415.870697,714.689758 415.956940,716.322754 
	C416.362457,723.997803 416.323975,723.930176 424.244904,724.027466 
	C428.642853,724.081421 433.037445,724.413879 437.433533,724.620789 
	C437.623505,725.309631 437.813446,725.998474 438.003418,726.687317 
	C436.465881,727.457764 434.967926,728.778870 433.383240,728.892700 
	C429.081390,729.201904 424.714478,729.308228 420.426453,728.915527 
	C415.905212,728.501404 414.327026,730.190735 414.970154,734.524353 
	C415.163361,735.826172 415.000000,737.180847 415.000000,738.998291 
z"/>
<path fill="#FFF4E6" opacity="1.000000" stroke="none" 
	d="
M514.754395,488.744934 
	C525.207581,479.718842 535.272644,483.575745 541.976196,493.805969 
	C542.611938,494.776123 541.611145,497.680634 540.487000,498.800903 
	C533.615845,505.648224 517.710083,504.294006 512.139343,496.586029 
	C509.582581,493.048370 512.719849,491.227173 514.754395,488.744934 
z"/>
<path fill="#FFF4E6" opacity="1.000000" stroke="none" 
	d="
M441.637268,454.740448 
	C434.271973,461.853607 427.121674,468.710510 419.773834,475.348785 
	C419.230194,475.839905 416.401855,475.087952 416.118683,474.347107 
	C415.165894,471.853973 413.915680,468.853333 414.526123,466.500031 
	C416.372711,459.381592 428.055725,448.562073 439.079315,451.282837 
	C440.334381,451.592621 443.424713,451.240417 441.637268,454.740448 
z"/>
<path fill="#FFF4E6" opacity="1.000000" stroke="none" 
	d="
M605.465881,475.185974 
	C600.900513,471.664856 596.558105,468.385101 592.426880,464.858063 
	C589.296936,462.185822 586.436279,459.198303 582.540405,455.476624 
	C584.824463,454.552521 586.682312,453.298462 588.649780,453.092651 
	C596.717468,452.248596 606.066956,457.521790 609.730286,464.652924 
	C612.059082,469.186218 610.698914,472.859161 605.465881,475.185974 
z"/>
<path fill="#FFF4E6" opacity="1.000000" stroke="none" 
	d="
M528.017517,522.000000 
	C525.161133,522.060425 523.001465,522.291016 522.894287,518.621948 
	C522.797180,515.296814 523.979797,513.307861 527.101318,513.221375 
	C534.777527,513.008606 541.554443,510.286194 548.413513,507.158508 
	C549.985596,506.441589 553.826721,508.663849 555.421570,510.549896 
	C557.409119,512.900452 554.786987,514.458313 552.684753,515.086670 
	C544.644104,517.490173 536.548767,519.710999 528.017517,522.000000 
z"/>
<path fill="#FFF4E6" opacity="1.000000" stroke="none" 
	d="
M537.664551,312.894775 
	C535.526855,312.469788 533.745483,312.071411 532.023804,311.494720 
	C523.533081,308.650635 523.253906,308.163788 524.381836,298.900970 
	C530.964233,296.848541 548.785828,301.194000 551.953430,305.768311 
	C547.305176,308.131989 542.676758,310.485565 537.664551,312.894775 
z"/>
<path fill="#FFF4E6" opacity="1.000000" stroke="none" 
	d="
M567.281738,438.248505 
	C568.109985,437.405762 568.748718,436.857330 569.277832,436.218109 
	C571.894470,433.057007 574.588440,430.847168 578.923218,433.740051 
	C580.337646,434.684021 582.438354,434.566711 584.200012,435.030273 
	C588.192688,436.080872 589.034302,438.297363 586.705566,441.489471 
	C582.137634,447.750916 571.501526,447.810394 567.137512,441.499512 
	C566.659607,440.808411 567.052673,439.515015 567.281738,438.248505 
z"/>
<path fill="#FFF4E6" opacity="1.000000" stroke="none" 
	d="
M496.754272,473.746094 
	C498.519226,472.925537 500.379822,471.549133 501.445679,472.010101 
	C502.665039,472.537506 503.332489,474.637177 503.937378,476.172791 
	C504.275208,477.030457 503.999390,478.129822 503.999939,479.120270 
	C504.005798,489.807037 504.005859,489.806976 493.747864,486.975494 
	C489.745087,485.870605 488.963989,484.051941 491.299438,480.565125 
	C492.847656,478.253571 494.753174,476.181335 496.754272,473.746094 
z"/>
<path fill="#FFF4E6" opacity="1.000000" stroke="none" 
	d="
M598.731323,417.460297 
	C601.189148,421.397888 599.527039,423.612457 596.036255,424.327332 
	C592.848633,424.980194 589.449219,425.175018 586.213318,424.857391 
	C582.844238,424.526672 583.513367,421.723206 584.784363,420.040863 
	C586.764038,417.420410 589.018921,414.732056 591.750977,413.019806 
	C595.951294,410.387268 596.812744,414.817291 598.731323,417.460297 
z"/>
<path fill="#FFF4E6" opacity="1.000000" stroke="none" 
	d="
M524.286987,331.358948 
	C519.024841,335.012604 517.238281,329.057220 513.557922,328.596710 
	C515.569946,321.012177 518.763428,318.425842 523.444824,319.636688 
	C527.593018,320.709595 528.424316,322.933167 526.674622,326.555084 
	C525.951172,328.052490 525.208557,329.540649 524.286987,331.358948 
z"/>
<path fill="#FFF4E6" opacity="1.000000" stroke="none" 
	d="
M515.961304,475.803406 
	C514.742676,474.749237 513.646973,473.752655 513.119568,472.514130 
	C511.909332,469.672058 510.891296,466.738190 509.979889,463.784607 
	C509.689697,462.844238 509.981873,461.724182 510.007629,460.686340 
	C511.062836,460.713531 512.589539,460.298065 513.097412,460.839081 
	C516.650391,464.623657 519.992737,468.605896 524.049072,473.268036 
	C520.605835,474.377441 518.474060,475.064270 515.961304,475.803406 
z"/>
<path fill="#FFFFFF" opacity="1.000000" stroke="none" 
	d="
M515.927734,625.242554 
	C518.168701,631.639282 520.315857,637.672485 522.744629,644.497070 
	C516.326050,644.497070 510.999207,644.497070 504.854675,644.497070 
	C507.377106,637.740601 509.738037,631.242432 512.347717,624.845703 
	C512.509705,624.448792 514.626587,624.849426 515.927734,625.242554 
z"/>
<path fill="#FFFFFF" opacity="1.000000" stroke="none" 
	d="
M606.226440,711.727417 
	C617.365845,723.025146 613.960815,739.548645 599.325745,745.393372 
	C594.736206,747.226196 588.833984,745.856384 583.539368,745.709290 
	C583.006226,745.694458 582.086914,743.993958 582.078125,743.068909 
	C581.974548,732.098999 581.962769,721.127136 582.087158,710.157654 
	C582.098755,709.130127 583.221680,707.216797 583.794434,707.229675 
	C591.401550,707.401489 599.583496,704.898987 606.226440,711.727417 
z"/>
<path fill="#FFFFFF" opacity="1.000000" stroke="none" 
	d="
M466.505280,709.270386 
	C473.839539,705.528748 481.216675,705.341003 487.562042,709.564514 
	C494.337799,714.074341 497.543274,720.751404 496.248688,729.613342 
	C495.166962,737.018616 491.452332,742.294189 485.148834,744.775940 
	C476.723694,748.092896 468.187744,747.234741 461.585571,740.014465 
	C454.738251,732.526184 454.003967,716.393555 466.505280,709.270386 
z"/>
<path fill="#FFFFFF" opacity="1.000000" stroke="none" 
	d="
M525.290527,711.210205 
	C534.421387,702.542297 549.294495,705.915955 555.198914,716.503662 
	C560.218384,725.504517 557.902039,735.229858 551.698486,740.970215 
	C542.257874,749.705750 527.334900,747.600891 520.666443,736.512695 
	C516.360657,729.353333 516.841064,717.654541 525.290527,711.210205 
z"/>
</svg>