<?xml version="1.0" encoding="UTF-8"?>
<svg version="1.1" viewBox="0 0 1024 1024" width="1024" height="1024" xmlns="http://www.w3.org/2000/svg">
<path transform="translate(398,260)" d="m0 0h5l10 9 11 9 14 13 8 7 12 11 8 7 16 15 14 14 3 12 1 6 1 27 4 9 15 15 8 7 15 14 10 9 12 11 8 7 13 12 10 9 8 7 14 13 8 7 13 12 4 7 1 3v11l-4 8-7 5-7 2-10-1-10-5-9-10-9-11-26-30-9-11-13-15-12-14-9-11-22-26-7-8-10-5-27-2-12-3-10-6-7-6-7-8-14-15-12-13-15-15-7-8-12-13-10-11-1-5 5-1 15 13 16 15 13 12 17 16 9 9 4 3h6l2-2v-6l-7-8-28-28-6-5-5-5-14-15-9-9 1-4 4-1 10 9 13 12 11 11 8 7 24 24 6 5h7l2-3-1-6-70-70 1-4 4-1 10 9 13 12 16 15 16 16 8 7 8 8 6 1 3-2-1-7-7-8-29-29-7-8-16-16-7-8z" fill="#010101"/>
<path transform="translate(663,252)" d="m0 0 5 1 4 4 2 10v8l-3 15-6 16-9 17-8 12-8 10-12 14-21 21-7 8-43 43-4-2-8-7-26-24-3-4 28-28 8-7 14-14 7-8 13-12 44-44 8-7 8-8 8-7z" fill="#010101"/>
<path transform="translate(565,593)" d="m0 0h18l4 5 19 38 2 5 2 1 1-5 20-41 3-3h18l2 2v80l-1 1h-17l-2-2-1-33-10 19-8 15-1 1h-11l-5-8-14-28-1 34-2 2h-16l-2-2v-78z" fill="#010101"/>
<path transform="translate(374,593)" d="m0 0h17l4 4 13 26 8 17v2h2l2-6 15-31 5-10 2-2h19l1 1 1 10v57l-1 14-1 1h-17l-2-4v-30l1-2-3 3-15 30-3 3h-10l-4-5-15-30v-2h-2v36l-1 1h-17l-1-1v-80z" fill="#010101"/>
<path transform="translate(484,428)" d="m0 0 7 6 11 13-2 4-11 13-9 11-13 15-11 14-13 15-9 11-13 15-7 8-8 4-4 1h-8l-8-4-6-7-1-5v-9l2-7 9-10 15-14 12-11 13-12 8-8 8-7 17-16 10-10 8-7z" fill="#010101"/>
<path transform="translate(287,593)" d="m0 0h17l2 2 1 53 5 8 5 2h8l7-4 3-6 1-52 2-3h18l2 4v45l-3 14-6 10-8 7-10 4-6 1h-8l-12-3-9-6-6-7-4-9-1-5v-53z" fill="#010101"/>
<path transform="translate(504,593)" d="m0 0h18l4 5 20 52 8 21-1 5h-18l-3-4-3-10-32 1-5 12-1 1h-18l-1-1v-6l30-75zm8 29-7 18-1 4h17l-1-6-6-16z" fill="#010101"/>
<path transform="translate(663,593)" d="m0 0h20l7 10 8 14 2 5h2l2-5 10-17 5-7h19l1 5-18 30-10 16v17l-1 14-1 1h-17l-1-1-1-31-9-16-13-21-6-10z" fill="#010101"/>
<path transform="translate(509,275)" d="m0 0 19 1 20 4 19 7 17 9 7 5-2 4-5 4-13-8-21-9-16-4-6-1h-31l-18 4-13 5-5 1-7-6v-2l17-7 18-5z" fill="#010101"/>
<path transform="translate(638,365)" d="m0 0 3 3 5 17 2 12v28l-4 20-5 15-11 21-7 9-7-6 2-5 7-11 8-17 5-19 2-18-1-19-4-17-1-7z" fill="#010101"/>
<path transform="translate(383,367)" d="m0 0 7 6 1 3-4 17-1 8v20l3 19 6 18 10 19 3 4-1 4-4 4-4-2-9-14-8-18-5-18-2-15v-21l3-19z" fill="#010101"/>
<path transform="translate(457,520)" d="m0 0 5 1 12 5 15 4 18 2h10l17-2 15-4 13-5 4 2 4 4v2l-13 6-16 5-21 3h-18l-19-3-17-5-14-7 2-5z" fill="#010101"/>
<path transform="translate(560,313)" d="m0 0h8l9 3-2 4-17 17-7 8-9 9-6 5h-2l-3-13 1-10 5-10 9-8 9-4z" fill="#010101"/>
<path transform="translate(479,494)" d="m0 0 12 2 12 6 7 8 1 2v10h-10l-16-3-16-6-3-2 2-4z" fill="#010101"/>
<path transform="translate(506,296)" d="m0 0h6v10l-5 10-9 8-6 1-7-7-8-7-5-6 8-4 16-4z" fill="#010101"/>
<path transform="translate(622,381)" d="m0 0 2 2 3 11 1 7v18l-2 4-11-4-8-6-4-9 1-5z" fill="#010101"/>
<path transform="translate(577,702)" d="m0 0h22l8 4 7 8 2 5v13l-4 8-8 7-9 3h-17l-2-2v-44zm4 4v39h17l8-5 5-7 1-10-3-9-7-6-5-2z" fill="#010101"/>
<path transform="translate(471,701)" d="m0 0h10l10 5 7 8 2 6v11l-4 9-8 7-8 3h-9l-8-3-7-6-4-8-1-4v-8l3-8 6-7 7-4zm-2 5-8 5-5 8v12l4 8 5 4 9 3 11-2 7-6 3-6 1-9-3-8-5-6-6-3z" fill="#010101"/>
<path transform="translate(532,701)" d="m0 0h10l9 4 5 5 4 6 1 3v13l-4 8-8 7-7 3h-10l-9-4-5-4-5-10v-13l5-10 8-6zm4 4-8 2-8 7-3 7v9l4 8 7 6 2 1h13l6-3 6-7 2-6v-7l-3-7-5-6-6-3z" fill="#010101"/>
<path transform="translate(399,384)" d="m0 0 7 6 16 16-1 6-6 5-12 5-7 1v-26z" fill="#010101"/>
<path transform="translate(432,415)" d="m0 0 5 1 15 4 22 1-1 3-8 7-11 11-7-1-4-1-4-9-4-5-7-4 2-4z" fill="#010101"/>
<path transform="translate(411,429)" d="m0 0h9l8 5 3 3v3l-11 4-8 6-5 6-3-3-5-13-1-5 10-5z" fill="#010101"/>
<path transform="translate(502,335)" d="m0 0 9 3 8 7 4 10 1 5v10l-7 8-5 4-1-17-3-16-4-9z" fill="#010101"/>
<path transform="translate(607,429)" d="m0 0h7l11 5-2 10-5 12-4-2-9-8-8-4 1-5 5-6z" fill="#010101"/>
<path transform="translate(411,702)" d="m0 0h31v4h-28l1 17h15l7 1-1 4h-22v21l-4 1-1-1v-45z" fill="#010101"/>
<path transform="translate(522,483)" d="m0 0h9l7 6 4 5-2 4-8 4h-14l-8-8 2-5 5-4z" fill="#010101"/>
<path transform="translate(433,450)" d="m0 0 9 1-2 4-16 15-6 5-3-1-2-4 1-7 7-8 7-4z" fill="#010101"/>
<path transform="translate(587,452)" d="m0 0 10 1 6 4 6 7 1 5-4 6-4-2-8-7-12-11 1-2z" fill="#010101"/>
<path transform="translate(549,505)" d="m0 0 4 2 3 5-8 4-13 4-5 1h-8v-8l15-2z" fill="#010101"/>
<path transform="translate(523,297)" d="m0 0 12 1 16 5 1 2-11 4-4 3-5-1-9-4z" fill="#010101"/>
<path transform="translate(573,431)" d="m0 0 5 2 9 2-1 6-11 5-5-1-5-6z" fill="#010101"/>
<path transform="translate(498,470)" d="m0 0 4 1 1 3v10l-1 4-9-2-5-2 2-4z" fill="#010101"/>
<path transform="translate(592,411)" d="m0 0 3 1 5 9-6 3h-11v-4z" fill="#010101"/>
<path transform="translate(518,318)" d="m0 0 6 1 3 2-2 6-3 6-10-6 2-4z" fill="#010101"/>
<path transform="translate(509,459)" d="m0 0h3l9 11 1 3-9 2-2-9-3-5z" fill="#010101"/>
</svg>
